<svg xmlns="http://www.w3.org/2000/svg" xmlns:xlink="http://www.w3.org/1999/xlink" xmlns:lucid="lucid" width="1740" height="706.5"><g transform="translate(-20 -73.49999999999997)" lucid:page-tab-id="0_0"><path d="M856.53 120c73.78 0 134.14 112 134.14 250S930.3 620 856.53 620h-402.4C380.36 620 320 508 320 370s60.36-250 134.13-250zM1472.74 133.65c34.17 0 62.13 61.53 62.13 137.35s-27.96 137.35-62.13 137.35h-186.4c-34.18 0-62.14-61.53-62.14-137.35s27.96-137.35 62.14-137.35z" stroke="#3a414a" fill-opacity="0"/><path d="M520.67 186a6 6 0 0 1 6-6h148a6 6 0 0 1 6 6v48a6 6 0 0 1-6 6h-148a6 6 0 0 1-6-6z" stroke="#3a414a" fill="#fff"/><use xlink:href="#a" transform="matrix(1,0,0,1,532.6666666666667,192) translate(2.043209876543216 22.27777777777778)"/><use xlink:href="#b" transform="matrix(1,0,0,1,532.6666666666667,192) translate(66.17901234567901 22.27777777777778)"/><path d="M760.67 188a6 6 0 0 1 6-6h148a6 6 0 0 1 6 6v48a6 6 0 0 1-6 6h-148a6 6 0 0 1-6-6z" stroke="#3a414a" fill="#fff"/><use xlink:href="#a" transform="matrix(1,0,0,1,772.6666666666666,194) translate(0.4382716049382793 22.27777777777778)"/><use xlink:href="#c" transform="matrix(1,0,0,1,772.6666666666666,194) translate(64.57407407407408 22.27777777777778)"/><path d="M470.67 306a6 6 0 0 1 6-6h248a6 6 0 0 1 6 6v118.67a6 6 0 0 1-6 6h-248a6 6 0 0 1-6-6z" stroke="#3a414a" fill="#fff"/><use xlink:href="#d" transform="matrix(1,0,0,1,482.66666666666674,312) translate(32.29012345679013 44.52777777777778)"/><use xlink:href="#e" transform="matrix(1,0,0,1,482.66666666666674,312) translate(107.59876543209876 44.52777777777778)"/><use xlink:href="#f" transform="matrix(1,0,0,1,482.66666666666674,312) translate(23.740740740740733 71.19444444444446)"/><use xlink:href="#g" transform="matrix(1,0,0,1,482.66666666666674,312) translate(111.20987654320987 71.19444444444446)"/><path d="M910.67 417.6c0 7.22-31.34 13.07-70 13.07s-70-5.85-70-13.07V313.07c0-7.22 31.34-13.07 70-13.07s70 5.85 70 13.07z" stroke="#3a414a" fill="#fff"/><path d="M910.67 313.07c0 7.2-31.34 13.06-70 13.06s-70-5.85-70-13.06" stroke="#3a414a" fill="none"/><use xlink:href="#h" transform="matrix(1,0,0,1,775.6666666666666,331.13333333333327) translate(4.537037037037031 53.40277777777778)"/><path d="M1010.67 126a6 6 0 0 1 6-6h168a6 6 0 0 1 6 6v488a6 6 0 0 1-6 6h-168a6 6 0 0 1-6-6z" fill="none"/><path d="M1010.67 620c5.52 0 10-4.48 10-10V380c0-5.52 4.47-10 10-10-5.53 0-10-4.48-10-10V130c0-5.52-4.48-10-10-10" stroke="#3a414a" fill="none"/><use xlink:href="#i" transform="matrix(1,0,0,1,1045.6666666666667,125) translate(0 249.44444444444443)"/><use xlink:href="#j" transform="matrix(1,0,0,1,1045.6666666666667,125) translate(90.00000000000001 249.44444444444443)"/><path d="M731.63 365.33h22.15" stroke="#3a414a" fill="none"/><path d="M731.64 365.83h-.5v-1h.5z" stroke="#3a414a" stroke-width=".05" fill="#3a414a"/><path d="M768.55 365.33l-14.27 4.64v-9.27z" stroke="#3a414a" fill="#3a414a"/><path d="M770.67 496a6 6 0 0 1 6-6h128a6 6 0 0 1 6 6v48a6 6 0 0 1-6 6h-128a6 6 0 0 1-6-6z" stroke="#3a414a" fill="#fff"/><use xlink:href="#k" transform="matrix(1,0,0,1,782.6666666666666,502) translate(18.524691358024697 22.40277777777778)"/><path d="M600.44 482.1c-.76.1-1.37.24-1.97.54l-26.3 12.96c-1.44.68-2.42 1.9-2.73 3.5l-6.5 29.16c-.32 1.37-.1 2.73.67 3.94.08.15.16.23.3.38l18.2 23.34c.98 1.3 2.35 1.97 3.94 1.97h29.25c1.58 0 2.95-.7 3.93-1.98l18.2-23.34c.98-1.3 1.36-2.8.98-4.4l-6.5-29.1c-.3-1.6-1.3-2.8-2.74-3.48l-26.3-12.96c-.83-.38-1.6-.6-2.42-.53z" stroke="#000" stroke-opacity="0" stroke-width="3.83" fill="#326ce5"/><path d="M600.43 480c-.8.08-1.44.24-2.08.56l-27.76 13.68c-1.53.72-2.57 2-2.9 3.68l-6.87 30.8c-.32 1.44-.08 2.88.72 4.16.08.16.16.24.32.4l19.2 24.64c1.04 1.36 2.48 2.08 4.16 2.08h30.88c1.7 0 3.13-.72 4.17-2.08l19.2-24.64c1.04-1.36 1.44-2.96 1.04-4.56l-6.87-30.8c-.32-1.68-1.36-2.96-2.88-3.68L603 480.56c-.9-.4-1.7-.64-2.57-.56zm0 2.16c.88-.08 1.6.08 2.4.48l26.4 12.96c1.36.72 2.32 1.92 2.72 3.52l6.48 29.12c.32 1.6 0 3.04-.96 4.32l-18.24 23.36c-.96 1.28-2.32 2-3.92 2h-29.27c-1.6 0-2.96-.72-3.92-2l-18.23-23.36c-.08-.08-.16-.24-.24-.4-.8-1.2-1.04-2.48-.72-3.92l6.5-29.12c.4-1.6 1.27-2.8 2.7-3.52l26.4-12.96c.65-.32 1.2-.48 1.93-.56z" stroke="#000" stroke-opacity="0" stroke-width="3.83" fill="#fff"/><path d="M581.8 548.05c0 .9.15 1.57.42 2 .28.45.7.66 1.25.66.4 0 .72-.1.98-.3.27-.23.43-.57.5-1.03l1.1.08c-.08.66-.35 1.18-.8 1.57-.46.4-1.04.6-1.74.6-.92 0-1.63-.3-2.1-.9-.5-.62-.74-1.5-.74-2.65s.24-2.02.73-2.62c.48-.6 1.18-.9 2.1-.9.67 0 1.23.17 1.67.53.45.37.73.86.85 1.5l-1.13.08c-.07-.37-.22-.68-.45-.9-.23-.22-.56-.33-1-.33-.57 0-1 .2-1.25.6-.26.4-.4 1.07-.4 2.02zM587.25 551.5v-5.24c0-.48 0-1-.04-1.6h1.05l.05 1.4h.02c.18-.58.38-.98.6-1.2.24-.2.56-.32.98-.32.14 0 .3.02.44.07v1.05c-.14-.04-.34-.07-.58-.07-.46 0-.8.2-1.05.62-.23.4-.35.97-.35 1.73v3.56zM597 548.07c0 1.2-.26 2.08-.76 2.66-.5.6-1.26.88-2.23.88-.95 0-1.68-.3-2.17-.9-.5-.6-.74-1.5-.74-2.63 0-2.35.98-3.53 2.96-3.53 1 0 1.74.3 2.22.87.48.58.72 1.47.72 2.67zm-1.15 0c0-.94-.15-1.63-.42-2.05-.26-.42-.72-.64-1.36-.64-.64 0-1.1.22-1.4.65-.28.44-.43 1.1-.43 2.04 0 .9.14 1.58.43 2.03.28.45.73.67 1.33.67.66 0 1.14-.2 1.4-.65.3-.44.45-1.12.45-2.05zM602.57 551.5v-4.34c0-.44-.04-.8-.12-1.04-.1-.25-.23-.43-.4-.54-.2-.1-.48-.16-.84-.16-.52 0-.94.2-1.24.56-.3.38-.46.9-.46 1.56v3.95h-1.1v-5.37c0-.8 0-1.28-.04-1.46h1.04l.02.17v.32c.02.12.02.34.03.67h.02c.25-.47.54-.8.87-1 .34-.2.75-.3 1.24-.3.73 0 1.26.2 1.6.58.33.37.5.98.5 1.85v4.54zM605.33 543.22v-1.08h1.1v1.08zm1.1 9.1c0 .65-.12 1.12-.36 1.4-.25.3-.62.44-1.1.44-.32 0-.58-.02-.78-.06v-.88l.37.05c.28 0 .48-.08.6-.23.1-.15.16-.44.16-.9v-7.47h1.1zM613.72 548.07c0 1.2-.26 2.08-.77 2.66-.5.6-1.25.88-2.22.88-.96 0-1.7-.3-2.18-.9-.5-.6-.74-1.5-.74-2.63 0-2.35 1-3.53 2.97-3.53 1 0 1.75.3 2.23.87.48.58.72 1.47.72 2.67zm-1.16 0c0-.94-.14-1.63-.4-2.05-.28-.42-.73-.64-1.37-.64-.65 0-1.12.22-1.4.65-.3.44-.44 1.1-.44 2.04 0 .9.14 1.58.43 2.03.27.45.72.67 1.32.67.66 0 1.14-.2 1.4-.65.3-.44.44-1.12.44-2.05zM620.68 548.05c0 2.37-.8 3.56-2.43 3.56-.5 0-.92-.1-1.25-.27-.33-.2-.6-.5-.8-.9h-.02c0 .13 0 .33-.03.6 0 .26-.03.4-.03.46h-1.07c.03-.24.04-.72.04-1.43v-7.94h1.1v2.67c0 .27 0 .6-.03.96h.02c.2-.43.46-.75.8-.94.33-.18.76-.28 1.25-.28.83 0 1.45.3 1.84.87.4.6.58 1.47.58 2.65zm-1.15.03c0-.95-.12-1.64-.37-2.04-.24-.42-.64-.63-1.2-.63-.6 0-1.06.23-1.35.68-.27.43-.4 1.12-.4 2.07 0 .9.13 1.55.4 1.98.28.43.73.64 1.36.64.55 0 .95-.2 1.2-.63s.37-1.1.37-2.06z" stroke="#000" stroke-opacity="0" fill="#fff"/><path d="M605.48 492.74v9.8h9.77v-9.8zm0 14.1v2.48c1.13-.27 2.34-.42 3.54-.42 2.23 0 4.3.45 6.23 1.34v-3.4zm-27.88.14v9.8h9.77v-9.8zm13.96 0v9.8h4.1c1.37-2.37 3.33-4.36 5.67-5.74v-4.06zm-14.04 14.24v9.8h9.77v-9.8zm13.96 0v9.8h3.17c-.75-1.87-1.2-3.94-1.2-6.08 0-1.26.18-2.53.45-3.72z" stroke="#000" stroke-opacity="0" stroke-width="3.77" fill="#fff"/><path d="M609.62 510.93c-7.8 0-14.2 6.58-14.2 14.62 0 8.05 6.4 14.63 14.2 14.63 7.8 0 14.2-6.58 14.2-14.63 0-8.04-6.4-14.62-14.2-14.62zm5.96 20.77l-7.37-4.68v-8.78h2.13v7.6l6.4 3.96z" stroke="#000" stroke-opacity="0" stroke-width="1.21" fill="#fff"/><use xlink:href="#l" transform="matrix(1,0,0,1,530.6666666666667,569) translate(28.117283950617278 17.77777777777778)"/><path d="M840.67 431.67v41.48" stroke="#3a414a" fill="none"/><path d="M840.67 431.17l.5-.02v.53h-1v-.53z" stroke="#3a414a" stroke-width=".05" fill="#3a414a"/><path d="M840.67 487.92l-4.64-14.27h9.27z" stroke="#3a414a" fill="#3a414a"/><path d="M600.67 479.52v-32" stroke="#3a414a" fill="none"/><path d="M601.17 480.06l-.74-.06-.26.04v-.53h1z" stroke="#3a414a" stroke-width=".05" fill="#3a414a"/><path d="M600.67 432.75L605.3 447h-9.27z" stroke="#3a414a" fill="#3a414a"/><path d="M865.67 580a6 6 0 0 1 6 6v93.67c0 17.12-13.88 31-31 31-17.12 0-31-13.88-31-31V586a6 6 0 0 1 6-6z" stroke="#3a414a" fill="#fff"/><use xlink:href="#m" transform="matrix(6.123233995736766e-17,1,-1,6.123233995736766e-17,866.6666666666666,585) translate(9.29629629629629 30.77777777777778)"/><use xlink:href="#n" transform="matrix(6.123233995736766e-17,1,-1,6.123233995736766e-17,866.6666666666666,585) translate(62.32098765432099 30.77777777777778)"/><path d="M840.67 550.96v12.2" stroke="#3a414a" fill="none"/><path d="M841.17 550.98h-1v-.52h1z" stroke="#3a414a" stroke-width=".05" fill="#3a414a"/><path d="M840.67 577.92l-4.64-14.27h9.27z" stroke="#3a414a" fill="#3a414a"/><path d="M394.33 356a6 6 0 0 1-6 6H291c-17.12 0-31-13.88-31-31 0-17.12 13.88-31 31-31h97.33a6 6 0 0 1 6 6z" stroke="#3a414a" fill="#fff"/><use xlink:href="#m" transform="matrix(1,-2.4492935982947064e-16,2.4492935982947064e-16,1,264.99999999999994,305.00000000000006) translate(23.641975308641975 30.77777777777778)"/><use xlink:href="#o" transform="matrix(1,-2.4492935982947064e-16,2.4492935982947064e-16,1,264.99999999999994,305.00000000000006) translate(76.66666666666667 30.77777777777778)"/><path d="M263.67 386a6 6 0 0 1 6-6h93.66c17.12 0 31 13.88 31 31 0 17.12-13.88 31-31 31h-93.66a6 6 0 0 1-6-6z" stroke="#3a414a" fill="#fff"/><use xlink:href="#m" transform="matrix(1,0,0,1,268.66666666666663,385) translate(21.641975308641975 30.77777777777778)"/><use xlink:href="#o" transform="matrix(1,0,0,1,268.66666666666663,385) translate(74.66666666666667 30.77777777777778)"/><path d="M40 306a6 6 0 0 1 6-6h148a6 6 0 0 1 6 6v130a6 6 0 0 1-6 6H46a6 6 0 0 1-6-6z" stroke="#3a414a" fill="#fff"/><use xlink:href="#p" transform="matrix(1,0,0,1,52,312) translate(-0.8888888888888857 50.611111111111114)"/><use xlink:href="#q" transform="matrix(1,0,0,1,52,312) translate(50.098765432098766 77.27777777777777)"/><path d="M395.33 411h58.52" stroke="#3a414a" fill="none"/><path d="M395.35 411.5h-.56l.03-.5-.03-.5h.55z" stroke="#3a414a" stroke-width=".05" fill="#3a414a"/><path d="M468.6 411l-14.25 4.64v-9.28z" stroke="#3a414a" fill="#3a414a"/><path d="M569.33 240.98v42.18" stroke="#3a414a" fill="none"/><path d="M569.83 241h-1v-.52h1z" stroke="#3a414a" stroke-width=".05" fill="#3a414a"/><path d="M569.33 297.93l-4.63-14.27h9.27z" stroke="#3a414a" fill="#3a414a"/><path d="M759.68 194h-62.2" stroke="#3a414a" fill="none"/><path d="M760.18 194.5h-.52v-1h.5z" stroke="#3a414a" stroke-width=".05" fill="#3a414a"/><path d="M682.72 194l14.27-4.64v9.27z" stroke="#3a414a" fill="#3a414a"/><path d="M681.65 224.67h62.2" stroke="#3a414a" fill="none"/><path d="M681.67 225.17h-.52v-1h.52z" stroke="#3a414a" stroke-width=".05" fill="#3a414a"/><path d="M758.6 224.67l-14.26 4.63v-9.27z" stroke="#3a414a" fill="#3a414a"/><path d="M640 299.03v-42.2" stroke="#3a414a" fill="none"/><path d="M640.5 299.53h-1V299h1z" stroke="#3a414a" stroke-width=".05" fill="#3a414a"/><path d="M640 242.06l4.64 14.27h-9.27z" stroke="#3a414a" fill="#3a414a"/><path d="M469.68 328.67h-58.5" stroke="#3a414a" fill="none"/><path d="M470.18 329.17h-.5v-1h.5z" stroke="#3a414a" stroke-width=".05" fill="#3a414a"/><path d="M396.4 328.67l14.28-4.64v9.27z" stroke="#3a414a" fill="#3a414a"/><path d="M259 331h-29a.02.02 0 0 0-.03.02.02.02 0 0 1-.02.02h-13.13" stroke="#3a414a" fill="none"/><path d="M259.5 331l.03.5H259v-1h.54z" stroke="#3a414a" stroke-width=".05" fill="#3a414a"/><path d="M202.06 331.04l14.26-4.63v9.28z" stroke="#3a414a" fill="#3a414a"/><path d="M201 409.96h30.82a.02.02 0 0 1 .02.02.02.02 0 0 0 .03.02h14.95" stroke="#3a414a" fill="none"/><path d="M201 410.46h-.5v-1h.5z" stroke="#3a414a" stroke-width=".05" fill="#3a414a"/><path d="M261.58 410l-14.26 4.64v-9.27z" stroke="#3a414a" fill="#3a414a"/><path d="M840.67 711.67v33.5a6 6 0 0 0 6 6h243.16a6 6 0 0 0 6-6V556a6 6 0 0 1 6-6H1414a6 6 0 0 1 6 6v17.62" stroke="#3a414a" fill="none"/><path d="M840.66 711.17l.5-.03v.54h-1v-.55z" stroke="#3a414a" stroke-width=".05" fill="#3a414a"/><path d="M1420 588.38l-4.64-14.26h9.28z" stroke="#3a414a" fill="#3a414a"/><path d="M1560 139.65a6 6 0 0 1 6-6h168a6 6 0 0 1 6 6v262.7a6 6 0 0 1-6 6h-168a6 6 0 0 1-6-6z" fill="none"/><path d="M1560 408.35c5.52 0 10-4.47 10-10V281c0-5.52 4.48-10 10-10-5.52 0-10-4.48-10-10V143.65c0-5.53-4.48-10-10-10" stroke="#3a414a" fill="none"/><use xlink:href="#r" transform="matrix(1,0,0,1,1595,138.64644714038127) translate(0 136.94444444444446)"/><use xlink:href="#s" transform="matrix(1,0,0,1,1595,138.64644714038127) translate(108.4567901234568 136.94444444444446)"/><path d="M1408.2 715.12h18v13.94h-18v-13.94zM1321.2 590h190.4v125.12h-190.4V590z" fill="#29aae1"/><path d="M1329.8 597.65h173.8V709.5h-173.8V597.66z" fill="#fff" fill-opacity=".98"/><path d="M1328.6 729.9h173.6l-8.6 29.93H1320l8.6-29.92z" fill="#29aae1"/><path d="M1327.6 728.9h177.6l14.8 30.93h-177.6l-14.8-30.94z" fill="#29aae1"/><path d="M1387.8 751.84h63.2v6.3h-63.2v-6.3zM1353 733.82h4.6v3.9h-4.6v-3.9zM1361.2 734h4.8v3.9h-4.8V734zM1371.8 741.13h4.8v3.9h-4.8v-3.9zM1370.2 733.48h4.6v4.08h-4.6v-4.08zM1378.2 733.82h4.8v3.9h-4.8v-3.9zM1386 733.48h4.8v4.08h-4.8v-4.08zM1435 734.16h4.8v4.08h-4.8v-4.08zM1442.2 734.16h4.8v4.08h-4.8v-4.08zM1449 734.16h4.8v4.08h-4.8v-4.08zM1457.2 734.16h4.6v4.08h-4.6v-4.08zM1464.6 734.16h4.6v4.08h-4.6v-4.08zM1455.8 740.8h4.6v3.9h-4.6v-3.9zM1473 734.16h4.8v4.08h-4.8v-4.08zM1380.8 740.96h4.6v3.9h-4.6v-3.9zM1389.8 740.96h4.6v3.9h-4.6v-3.9zM1448.4 740.62h4v3.9h-4v-3.9zM1440.2 740.62h4.8v3.9h-4.8v-3.9zM1394.8 733.65h4.8v4.08h-4.8v-4.08zM1403.8 733.82h4.6v4.08h-4.6v-4.08zM1412 733.65h4.6v4.08h-4.6v-4.08zM1421 733.65h4.6v4.08h-4.6v-4.08zM1428.4 733.82h4.6v4.08h-4.6v-4.08zM1397.8 740.8h4.8v3.9h-4.8v-3.9zM1406.8 740.8h4.6v3.9h-4.6v-3.9zM1415 740.96h4.8v3.9h-4.8v-3.9zM1423.2 740.96h4.6v3.9h-4.6v-3.9zM1431.6 740.62h4.6v3.9h-4.6v-3.9z" fill="#fff"/><path d="M1320.2 759.83l199.8-.68-14.2-30.26-177 .33-8.6 30.6z" fill="none"/><path d="M1407.2 715.12h19.6V717h-19.6v-1.88zM1408 726.68h18.6v2.2H1408v-2.2z" fill="#fff"/><path d="M1370 636a6 6 0 0 1 6-6h88a6 6 0 0 1 6 6v28a6 6 0 0 1-6 6h-88a6 6 0 0 1-6-6z" stroke="#000" stroke-opacity="0" fill="#fff" fill-opacity="0"/><g><use xlink:href="#t" transform="matrix(1,0,0,1,1375,635) translate(4.351851851851848 19.65277777777778)"/></g><path d="M1264.2 216.67a6 6 0 0 1 6-6h228a6 6 0 0 1 6 6v118.66a6 6 0 0 1-6 6h-228a6 6 0 0 1-6-6z" stroke="#3a414a" fill="#fff"/><g><use xlink:href="#u" transform="matrix(1,0,0,1,1276.2033538901978,222.66666666666669) translate(28.524691358024697 31.15277777777778)"/><use xlink:href="#v" transform="matrix(1,0,0,1,1276.2033538901978,222.66666666666669) translate(61.73456790123457 31.15277777777778)"/><use xlink:href="#w" transform="matrix(1,0,0,1,1276.2033538901978,222.66666666666669) translate(125.80864197530863 31.15277777777778)"/><use xlink:href="#x" transform="matrix(1,0,0,1,1276.2033538901978,222.66666666666669) translate(175.12962962962962 31.15277777777778)"/><use xlink:href="#y" transform="matrix(1,0,0,1,1276.2033538901978,222.66666666666669) translate(26.024691358024683 57.81944444444445)"/><use xlink:href="#z" transform="matrix(1,0,0,1,1276.2033538901978,222.66666666666669) translate(116.0246913580247 57.81944444444445)"/><use xlink:href="#A" transform="matrix(1,0,0,1,1276.2033538901978,222.66666666666669) translate(64.2037037037037 84.48611111111111)"/></g><path d="M1263.24 276h-77.7a6 6 0 0 1-6-6V85.5a6 6 0 0 0-6-6h-512.2a6 6 0 0 0-6 6v17.62" stroke="#3a414a" fill="none"/><path d="M1263.74 276.5h-.5v-1h.5z" stroke="#3a414a" stroke-width=".05" fill="#3a414a"/><path d="M655.33 117.88l-4.63-14.26h9.27z" stroke="#3a414a" fill="#3a414a"/><defs><path fill="#3a414a" d="M185-189c-5-48-123-54-124 2 14 75 158 14 163 119 3 78-121 87-175 55-17-10-28-26-33-46l33-7c5 56 141 63 141-1 0-78-155-14-162-118-5-82 145-84 179-34 5 7 8 16 11 25" id="B"/><path fill="#3a414a" d="M115-194c55 1 70 41 70 98S169 2 115 4C84 4 66-9 55-30l1 105H24l-1-265h31l2 30c10-21 28-34 59-34zm-8 174c40 0 45-34 45-75s-6-73-45-74c-42 0-51 32-51 76 0 43 10 73 51 73" id="C"/><path fill="#3a414a" d="M141-36C126-15 110 5 73 4 37 3 15-17 15-53c-1-64 63-63 125-63 3-35-9-54-41-54-24 1-41 7-42 31l-33-3c5-37 33-52 76-52 45 0 72 20 72 64v82c-1 20 7 32 28 27v20c-31 9-61-2-59-35zM48-53c0 20 12 33 32 33 41-3 63-29 60-74-43 2-92-5-92 41" id="D"/><path fill="#3a414a" d="M114-163C36-179 61-72 57 0H25l-1-190h30c1 12-1 29 2 39 6-27 23-49 58-41v29" id="E"/><path fill="#3a414a" d="M143 0L79-87 56-68V0H24v-261h32v163l83-92h37l-77 82L181 0h-38" id="F"/><g id="a"><use transform="matrix(0.06172839506172839,0,0,0.06172839506172839,0,0)" xlink:href="#B"/><use transform="matrix(0.06172839506172839,0,0,0.06172839506172839,14.814814814814813,0)" xlink:href="#C"/><use transform="matrix(0.06172839506172839,0,0,0.06172839506172839,27.160493827160494,0)" xlink:href="#D"/><use transform="matrix(0.06172839506172839,0,0,0.06172839506172839,39.50617283950617,0)" xlink:href="#E"/><use transform="matrix(0.06172839506172839,0,0,0.06172839506172839,46.85185185185185,0)" xlink:href="#F"/></g><path fill="#3a414a" d="M240 0l2-218c-23 76-54 145-80 218h-23L58-218 59 0H30v-248h44l77 211c21-75 51-140 76-211h43V0h-30" id="G"/><path fill="#3a414a" d="M135-143c-3-34-86-38-87 0 15 53 115 12 119 90S17 21 10-45l28-5c4 36 97 45 98 0-10-56-113-15-118-90-4-57 82-63 122-42 12 7 21 19 24 35" id="H"/><path fill="#3a414a" d="M59-47c-2 24 18 29 38 22v24C64 9 27 4 27-40v-127H5v-23h24l9-43h21v43h35v23H59v120" id="I"/><path fill="#3a414a" d="M100-194c63 0 86 42 84 106H49c0 40 14 67 53 68 26 1 43-12 49-29l28 8c-11 28-37 45-77 45C44 4 14-33 15-96c1-61 26-98 85-98zm52 81c6-60-76-77-97-28-3 7-6 17-6 28h103" id="J"/><g id="b"><use transform="matrix(0.06172839506172839,0,0,0.06172839506172839,0,0)" xlink:href="#G"/><use transform="matrix(0.06172839506172839,0,0,0.06172839506172839,18.456790123456788,0)" xlink:href="#D"/><use transform="matrix(0.06172839506172839,0,0,0.06172839506172839,30.80246913580247,0)" xlink:href="#H"/><use transform="matrix(0.06172839506172839,0,0,0.06172839506172839,41.91358024691358,0)" xlink:href="#I"/><use transform="matrix(0.06172839506172839,0,0,0.06172839506172839,48.086419753086425,0)" xlink:href="#J"/><use transform="matrix(0.06172839506172839,0,0,0.06172839506172839,60.4320987654321,0)" xlink:href="#E"/></g><path fill="#3a414a" d="M266 0h-40l-56-210L115 0H75L2-248h35L96-30l15-64 43-154h32l59 218 59-218h35" id="K"/><path fill="#3a414a" d="M100-194c62-1 85 37 85 99 1 63-27 99-86 99S16-35 15-95c0-66 28-99 85-99zM99-20c44 1 53-31 53-75 0-43-8-75-51-75s-53 32-53 75 10 74 51 75" id="L"/><g id="c"><use transform="matrix(0.06172839506172839,0,0,0.06172839506172839,0,0)" xlink:href="#K"/><use transform="matrix(0.06172839506172839,0,0,0.06172839506172839,20.493827160493826,0)" xlink:href="#L"/><use transform="matrix(0.06172839506172839,0,0,0.06172839506172839,32.839506172839506,0)" xlink:href="#E"/><use transform="matrix(0.06172839506172839,0,0,0.06172839506172839,40.18518518518518,0)" xlink:href="#F"/><use transform="matrix(0.06172839506172839,0,0,0.06172839506172839,51.29629629629629,0)" xlink:href="#J"/><use transform="matrix(0.06172839506172839,0,0,0.06172839506172839,63.641975308641975,0)" xlink:href="#E"/></g><path fill="#3a414a" d="M30-248c87 1 191-15 191 75 0 78-77 80-158 76V0H30v-248zm33 125c57 0 124 11 124-50 0-59-68-47-124-48v98" id="M"/><path fill="#3a414a" d="M179-190L93 31C79 59 56 82 12 73V49c39 6 53-20 64-50L1-190h34L92-34l54-156h33" id="N"/><path fill="#3a414a" d="M106-169C34-169 62-67 57 0H25v-261h32l-1 103c12-21 28-36 61-36 89 0 53 116 60 194h-32v-121c2-32-8-49-39-48" id="O"/><path fill="#3a414a" d="M117-194c89-4 53 116 60 194h-32v-121c0-31-8-49-39-48C34-167 62-67 57 0H25l-1-190h30c1 10-1 24 2 32 11-22 29-35 61-36" id="P"/><g id="d"><use transform="matrix(0.06172839506172839,0,0,0.06172839506172839,0,0)" xlink:href="#M"/><use transform="matrix(0.06172839506172839,0,0,0.06172839506172839,14.814814814814813,0)" xlink:href="#N"/><use transform="matrix(0.06172839506172839,0,0,0.06172839506172839,25.925925925925924,0)" xlink:href="#I"/><use transform="matrix(0.06172839506172839,0,0,0.06172839506172839,32.098765432098766,0)" xlink:href="#O"/><use transform="matrix(0.06172839506172839,0,0,0.06172839506172839,44.44444444444444,0)" xlink:href="#L"/><use transform="matrix(0.06172839506172839,0,0,0.06172839506172839,56.79012345679012,0)" xlink:href="#P"/></g><path fill="#3a414a" d="M212-179c-10-28-35-45-73-45-59 0-87 40-87 99 0 60 29 101 89 101 43 0 62-24 78-52l27 14C228-24 195 4 139 4 59 4 22-46 18-125c-6-104 99-153 187-111 19 9 31 26 39 46" id="Q"/><path fill="#3a414a" d="M24-231v-30h32v30H24zM24 0v-190h32V0H24" id="R"/><g id="e"><use transform="matrix(0.06172839506172839,0,0,0.06172839506172839,0,0)" xlink:href="#Q"/><use transform="matrix(0.06172839506172839,0,0,0.06172839506172839,15.987654320987653,0)" xlink:href="#L"/><use transform="matrix(0.06172839506172839,0,0,0.06172839506172839,28.333333333333332,0)" xlink:href="#P"/><use transform="matrix(0.06172839506172839,0,0,0.06172839506172839,40.67901234567901,0)" xlink:href="#I"/><use transform="matrix(0.06172839506172839,0,0,0.06172839506172839,46.851851851851855,0)" xlink:href="#D"/><use transform="matrix(0.06172839506172839,0,0,0.06172839506172839,59.19753086419753,0)" xlink:href="#R"/><use transform="matrix(0.06172839506172839,0,0,0.06172839506172839,64.07407407407408,0)" xlink:href="#P"/><use transform="matrix(0.06172839506172839,0,0,0.06172839506172839,76.41975308641976,0)" xlink:href="#J"/><use transform="matrix(0.06172839506172839,0,0,0.06172839506172839,88.76543209876544,0)" xlink:href="#E"/></g><path fill="#3a414a" d="M87 75C49 33 22-17 22-94c0-76 28-126 65-167h31c-38 41-64 92-64 168S80 34 118 75H87" id="S"/><path fill="#3a414a" d="M84 4C-5 8 30-112 23-190h32v120c0 31 7 50 39 49 72-2 45-101 50-169h31l1 190h-30c-1-10 1-25-2-33-11 22-28 36-60 37" id="T"/><path fill="#3a414a" d="M177-190C167-65 218 103 67 71c-23-6-38-20-44-43l32-5c15 47 100 32 89-28v-30C133-14 115 1 83 1 29 1 15-40 15-95c0-56 16-97 71-98 29-1 48 16 59 35 1-10 0-23 2-32h30zM94-22c36 0 50-32 50-73 0-42-14-75-50-75-39 0-46 34-46 75s6 73 46 73" id="U"/><g id="f"><use transform="matrix(0.06172839506172839,0,0,0.06172839506172839,0,0)" xlink:href="#S"/><use transform="matrix(0.06172839506172839,0,0,0.06172839506172839,7.345679012345679,0)" xlink:href="#E"/><use transform="matrix(0.06172839506172839,0,0,0.06172839506172839,14.691358024691358,0)" xlink:href="#T"/><use transform="matrix(0.06172839506172839,0,0,0.06172839506172839,27.037037037037038,0)" xlink:href="#P"/><use transform="matrix(0.06172839506172839,0,0,0.06172839506172839,39.382716049382715,0)" xlink:href="#P"/><use transform="matrix(0.06172839506172839,0,0,0.06172839506172839,51.72839506172839,0)" xlink:href="#R"/><use transform="matrix(0.06172839506172839,0,0,0.06172839506172839,56.60493827160494,0)" xlink:href="#P"/><use transform="matrix(0.06172839506172839,0,0,0.06172839506172839,68.95061728395062,0)" xlink:href="#U"/></g><path fill="#3a414a" d="M190 0L58-211 59 0H30v-248h39L202-35l-2-213h31V0h-41" id="V"/><path fill="#3a414a" d="M143 4C61 4 22-44 18-125c-5-107 100-154 193-111 17 8 29 25 37 43l-32 9c-13-25-37-40-76-40-61 0-88 39-88 99 0 61 29 100 91 101 35 0 62-11 79-27v-45h-74v-28h105v86C228-13 192 4 143 4" id="W"/><path fill="#3a414a" d="M233-177c-1 41-23 64-60 70L243 0h-38l-65-103H63V0H30v-248c88 3 205-21 203 71zM63-129c60-2 137 13 137-47 0-61-80-42-137-45v92" id="X"/><path fill="#3a414a" d="M140-251c81 0 123 46 123 126C263-46 219 4 140 4 59 4 17-45 17-125s42-126 123-126zm0 227c63 0 89-41 89-101s-29-99-89-99c-61 0-89 39-89 99S79-25 140-24" id="Y"/><path fill="#3a414a" d="M194 0L95-120 63-95V0H30v-248h33v124l119-124h40L117-140 236 0h-42" id="Z"/><path fill="#3a414a" d="M103-251c84 0 111 97 45 133-19 10-37 24-39 52H78c0-63 77-55 77-114 0-30-21-42-52-43-32 0-53 17-56 46l-32-2c7-45 34-72 88-72zM77 0v-35h34V0H77" id="aa"/><path fill="#3a414a" d="M33-261c38 41 65 92 65 168S71 34 33 75H2C39 34 66-17 66-93S39-220 2-261h31" id="ab"/><g id="g"><use transform="matrix(0.06172839506172839,0,0,0.06172839506172839,0,0)" xlink:href="#V"/><use transform="matrix(0.06172839506172839,0,0,0.06172839506172839,15.987654320987653,0)" xlink:href="#W"/><use transform="matrix(0.06172839506172839,0,0,0.06172839506172839,33.2716049382716,0)" xlink:href="#X"/><use transform="matrix(0.06172839506172839,0,0,0.06172839506172839,49.25925925925925,0)" xlink:href="#Y"/><use transform="matrix(0.06172839506172839,0,0,0.06172839506172839,66.5432098765432,0)" xlink:href="#Z"/><use transform="matrix(0.06172839506172839,0,0,0.06172839506172839,81.35802469135801,0)" xlink:href="#aa"/><use transform="matrix(0.06172839506172839,0,0,0.06172839506172839,93.7037037037037,0)" xlink:href="#ab"/></g><path fill="#3a414a" d="M140-251c81 0 123 46 123 126C263-53 228-8 163 1c7 30 30 48 69 40v23c-55 16-95-15-103-61C56-3 17-48 17-125c0-80 42-126 123-126zm0 227c63 0 89-41 89-101s-29-99-89-99c-61 0-89 39-89 99S79-25 140-24" id="ac"/><path fill="#3a414a" d="M30 0v-248h33v221h125V0H30" id="ad"/><g id="h"><use transform="matrix(0.06172839506172839,0,0,0.06172839506172839,0,0)" xlink:href="#M"/><use transform="matrix(0.06172839506172839,0,0,0.06172839506172839,14.814814814814813,0)" xlink:href="#L"/><use transform="matrix(0.06172839506172839,0,0,0.06172839506172839,27.160493827160494,0)" xlink:href="#H"/><use transform="matrix(0.06172839506172839,0,0,0.06172839506172839,38.27160493827161,0)" xlink:href="#I"/><use transform="matrix(0.06172839506172839,0,0,0.06172839506172839,44.44444444444445,0)" xlink:href="#U"/><use transform="matrix(0.06172839506172839,0,0,0.06172839506172839,56.79012345679013,0)" xlink:href="#E"/><use transform="matrix(0.06172839506172839,0,0,0.06172839506172839,64.13580246913581,0)" xlink:href="#J"/><use transform="matrix(0.06172839506172839,0,0,0.06172839506172839,76.4814814814815,0)" xlink:href="#B"/><use transform="matrix(0.06172839506172839,0,0,0.06172839506172839,91.2962962962963,0)" xlink:href="#ac"/><use transform="matrix(0.06172839506172839,0,0,0.06172839506172839,108.58024691358025,0)" xlink:href="#ad"/></g><path fill="#3a414a" d="M96-169c-40 0-48 33-48 73s9 75 48 75c24 0 41-14 43-38l32 2c-6 37-31 61-74 61-59 0-76-41-82-99-10-93 101-131 147-64 4 7 5 14 7 22l-32 3c-4-21-16-35-41-35" id="ae"/><g id="i"><use transform="matrix(0.06172839506172839,0,0,0.06172839506172839,0,0)" xlink:href="#X"/><use transform="matrix(0.06172839506172839,0,0,0.06172839506172839,15.987654320987653,0)" xlink:href="#D"/><use transform="matrix(0.06172839506172839,0,0,0.06172839506172839,28.333333333333332,0)" xlink:href="#P"/><use transform="matrix(0.06172839506172839,0,0,0.06172839506172839,40.67901234567901,0)" xlink:href="#ae"/><use transform="matrix(0.06172839506172839,0,0,0.06172839506172839,51.79012345679013,0)" xlink:href="#O"/><use transform="matrix(0.06172839506172839,0,0,0.06172839506172839,64.13580246913581,0)" xlink:href="#J"/><use transform="matrix(0.06172839506172839,0,0,0.06172839506172839,76.4814814814815,0)" xlink:href="#E"/></g><g id="j"><use transform="matrix(0.06172839506172839,0,0,0.06172839506172839,0,0)" xlink:href="#Y"/><use transform="matrix(0.06172839506172839,0,0,0.06172839506172839,17.28395061728395,0)" xlink:href="#B"/></g><path fill="#3a414a" d="M85-194c31 0 48 13 60 33l-1-100h32l1 261h-30c-2-10 0-23-3-31C134-8 116 4 85 4 32 4 16-35 15-94c0-66 23-100 70-100zm9 24c-40 0-46 34-46 75 0 40 6 74 45 74 42 0 51-32 51-76 0-42-9-74-50-73" id="af"/><path fill="#3a414a" d="M153-248C145-148 188 4 80 4 36 3 13-21 6-62l32-5c4 25 16 42 43 43 27 0 39-20 39-49v-147H72v-28h81" id="ag"/><g id="k"><use transform="matrix(0.06172839506172839,0,0,0.06172839506172839,0,0)" xlink:href="#V"/><use transform="matrix(0.06172839506172839,0,0,0.06172839506172839,15.987654320987653,0)" xlink:href="#L"/><use transform="matrix(0.06172839506172839,0,0,0.06172839506172839,28.333333333333332,0)" xlink:href="#af"/><use transform="matrix(0.06172839506172839,0,0,0.06172839506172839,40.67901234567901,0)" xlink:href="#J"/><use transform="matrix(0.06172839506172839,0,0,0.06172839506172839,53.02469135802469,0)" xlink:href="#ag"/><use transform="matrix(0.06172839506172839,0,0,0.06172839506172839,64.1358024691358,0)" xlink:href="#B"/></g><path fill="#3a414a" d="M127-220V0H93v-220H8v-28h204v28h-85" id="ah"/><path fill="#3a414a" d="M115-194c53 0 69 39 70 98 0 66-23 100-70 100C84 3 66-7 56-30L54 0H23l1-261h32v101c10-23 28-34 59-34zm-8 174c40 0 45-34 45-75 0-40-5-75-45-74-42 0-51 32-51 76 0 43 10 73 51 73" id="ai"/><g id="l"><use transform="matrix(0.06172839506172839,0,0,0.06172839506172839,0,0)" xlink:href="#Q"/><use transform="matrix(0.06172839506172839,0,0,0.06172839506172839,15.987654320987653,0)" xlink:href="#E"/><use transform="matrix(0.06172839506172839,0,0,0.06172839506172839,23.333333333333332,0)" xlink:href="#L"/><use transform="matrix(0.06172839506172839,0,0,0.06172839506172839,35.67901234567901,0)" xlink:href="#P"/><use transform="matrix(0.06172839506172839,0,0,0.06172839506172839,48.02469135802469,0)" xlink:href="#ah"/><use transform="matrix(0.06172839506172839,0,0,0.06172839506172839,59.074074074074076,0)" xlink:href="#D"/><use transform="matrix(0.06172839506172839,0,0,0.06172839506172839,71.41975308641976,0)" xlink:href="#ai"/></g><path fill="#3a414a" d="M33-154v-36h34v36H33zM33 0v-36h34V0H33" id="aj"/><g id="m"><use transform="matrix(0.06172839506172839,0,0,0.06172839506172839,0,0)" xlink:href="#M"/><use transform="matrix(0.06172839506172839,0,0,0.06172839506172839,14.814814814814813,0)" xlink:href="#L"/><use transform="matrix(0.06172839506172839,0,0,0.06172839506172839,27.160493827160494,0)" xlink:href="#E"/><use transform="matrix(0.06172839506172839,0,0,0.06172839506172839,34.50617283950617,0)" xlink:href="#I"/><use transform="matrix(0.06172839506172839,0,0,0.06172839506172839,40.67901234567901,0)" xlink:href="#aj"/></g><path fill="#3a414a" d="M126-127c33 6 58 20 58 59 0 88-139 92-164 29-3-8-5-16-6-25l32-3c6 27 21 44 54 44 32 0 52-15 52-46 0-38-36-46-79-43v-28c39 1 72-4 72-42 0-27-17-43-46-43-28 0-47 15-49 41l-32-3c6-42 35-63 81-64 48-1 79 21 79 65 0 36-21 52-52 59" id="ak"/><path fill="#3a414a" d="M101-251c68 0 85 55 85 127S166 4 100 4C33 4 14-52 14-124c0-73 17-127 87-127zm-1 229c47 0 54-49 54-102s-4-102-53-102c-51 0-55 48-55 102 0 53 5 102 54 102" id="al"/><g id="n"><use transform="matrix(0.06172839506172839,0,0,0.06172839506172839,0,0)" xlink:href="#ak"/><use transform="matrix(0.06172839506172839,0,0,0.06172839506172839,12.345679012345679,0)" xlink:href="#al"/><use transform="matrix(0.06172839506172839,0,0,0.06172839506172839,24.691358024691358,0)" xlink:href="#al"/><use transform="matrix(0.06172839506172839,0,0,0.06172839506172839,37.03703703703704,0)" xlink:href="#al"/></g><path fill="#3a414a" d="M134-131c28 9 52 24 51 62-1 50-34 73-85 73S17-19 16-69c0-36 21-54 49-61-75-25-45-126 34-121 46 3 78 18 79 63 0 33-17 51-44 57zm-34-11c31 1 46-15 46-44 0-28-17-43-47-42-29 0-46 13-45 42 1 28 16 44 46 44zm1 122c35 0 51-18 51-52 0-30-18-46-53-46-33 0-51 17-51 47 0 34 19 51 53 51" id="am"/><g id="o"><use transform="matrix(0.06172839506172839,0,0,0.06172839506172839,0,0)" xlink:href="#am"/><use transform="matrix(0.06172839506172839,0,0,0.06172839506172839,12.345679012345679,0)" xlink:href="#al"/></g><path fill="#3a414a" d="M205 0l-28-72H64L36 0H1l101-248h38L239 0h-34zm-38-99l-47-123c-12 45-31 82-46 123h93" id="an"/><path fill="#3a414a" d="M24 0v-261h32V0H24" id="ao"/><path fill="#3a414a" d="M137 0h-34L2-248h35l83 218 83-218h36" id="ap"/><g id="p"><use transform="matrix(0.06172839506172839,0,0,0.06172839506172839,0,0)" xlink:href="#an"/><use transform="matrix(0.06172839506172839,0,0,0.06172839506172839,14.814814814814813,0)" xlink:href="#ao"/><use transform="matrix(0.06172839506172839,0,0,0.06172839506172839,19.691358024691354,0)" xlink:href="#C"/><use transform="matrix(0.06172839506172839,0,0,0.06172839506172839,32.03703703703703,0)" xlink:href="#O"/><use transform="matrix(0.06172839506172839,0,0,0.06172839506172839,44.38271604938271,0)" xlink:href="#D"/><use transform="matrix(0.06172839506172839,0,0,0.06172839506172839,56.728395061728385,0)" xlink:href="#ap"/><use transform="matrix(0.06172839506172839,0,0,0.06172839506172839,69.87654320987653,0)" xlink:href="#D"/><use transform="matrix(0.06172839506172839,0,0,0.06172839506172839,82.22222222222221,0)" xlink:href="#P"/><use transform="matrix(0.06172839506172839,0,0,0.06172839506172839,94.5679012345679,0)" xlink:href="#I"/><use transform="matrix(0.06172839506172839,0,0,0.06172839506172839,100.74074074074073,0)" xlink:href="#D"/><use transform="matrix(0.06172839506172839,0,0,0.06172839506172839,113.08641975308642,0)" xlink:href="#U"/><use transform="matrix(0.06172839506172839,0,0,0.06172839506172839,125.4320987654321,0)" xlink:href="#J"/></g><path fill="#3a414a" d="M33 0v-248h34V0H33" id="aq"/><g id="q"><use transform="matrix(0.06172839506172839,0,0,0.06172839506172839,0,0)" xlink:href="#an"/><use transform="matrix(0.06172839506172839,0,0,0.06172839506172839,14.814814814814813,0)" xlink:href="#M"/><use transform="matrix(0.06172839506172839,0,0,0.06172839506172839,29.629629629629626,0)" xlink:href="#aq"/></g><g id="r"><use transform="matrix(0.06172839506172839,0,0,0.06172839506172839,0,0)" xlink:href="#X"/><use transform="matrix(0.06172839506172839,0,0,0.06172839506172839,15.987654320987653,0)" xlink:href="#D"/><use transform="matrix(0.06172839506172839,0,0,0.06172839506172839,28.333333333333332,0)" xlink:href="#H"/><use transform="matrix(0.06172839506172839,0,0,0.06172839506172839,39.44444444444444,0)" xlink:href="#C"/><use transform="matrix(0.06172839506172839,0,0,0.06172839506172839,51.79012345679012,0)" xlink:href="#ai"/><use transform="matrix(0.06172839506172839,0,0,0.06172839506172839,64.1358024691358,0)" xlink:href="#J"/><use transform="matrix(0.06172839506172839,0,0,0.06172839506172839,76.48148148148148,0)" xlink:href="#E"/><use transform="matrix(0.06172839506172839,0,0,0.06172839506172839,83.82716049382717,0)" xlink:href="#E"/><use transform="matrix(0.06172839506172839,0,0,0.06172839506172839,91.17283950617285,0)" xlink:href="#N"/></g><g id="s"><use transform="matrix(0.06172839506172839,0,0,0.06172839506172839,0,0)" xlink:href="#M"/><use transform="matrix(0.06172839506172839,0,0,0.06172839506172839,14.814814814814813,0)" xlink:href="#R"/></g><path fill="#3a414a" d="M160-131c35 5 61 23 61 61C221 17 115-2 30 0v-248c76 3 177-17 177 60 0 33-19 50-47 57zm-97-11c50-1 110 9 110-42 0-47-63-36-110-37v79zm0 115c55-2 124 14 124-45 0-56-70-42-124-44v89" id="ar"/><path fill="#3a414a" d="M206 0h-36l-40-164L89 0H53L-1-190h32L70-26l43-164h34l41 164 42-164h31" id="as"/><g id="t"><use transform="matrix(0.06172839506172839,0,0,0.06172839506172839,0,0)" xlink:href="#ar"/><use transform="matrix(0.06172839506172839,0,0,0.06172839506172839,14.814814814814813,0)" xlink:href="#E"/><use transform="matrix(0.06172839506172839,0,0,0.06172839506172839,22.160493827160494,0)" xlink:href="#L"/><use transform="matrix(0.06172839506172839,0,0,0.06172839506172839,34.50617283950617,0)" xlink:href="#as"/><use transform="matrix(0.06172839506172839,0,0,0.06172839506172839,50.49382716049382,0)" xlink:href="#H"/><use transform="matrix(0.06172839506172839,0,0,0.06172839506172839,61.60493827160494,0)" xlink:href="#J"/><use transform="matrix(0.06172839506172839,0,0,0.06172839506172839,73.95061728395062,0)" xlink:href="#E"/></g><path fill="#3a414a" d="M63-220v92h138v28H63V0H30v-248h175v28H63" id="at"/><g id="u"><use transform="matrix(0.06172839506172839,0,0,0.06172839506172839,0,0)" xlink:href="#ah"/><use transform="matrix(0.06172839506172839,0,0,0.06172839506172839,13.518518518518517,0)" xlink:href="#at"/></g><g id="v"><use transform="matrix(0.06172839506172839,0,0,0.06172839506172839,0,0)" xlink:href="#Q"/><use transform="matrix(0.06172839506172839,0,0,0.06172839506172839,15.987654320987653,0)" xlink:href="#ao"/><use transform="matrix(0.06172839506172839,0,0,0.06172839506172839,20.864197530864196,0)" xlink:href="#L"/><use transform="matrix(0.06172839506172839,0,0,0.06172839506172839,33.20987654320987,0)" xlink:href="#T"/><use transform="matrix(0.06172839506172839,0,0,0.06172839506172839,45.55555555555555,0)" xlink:href="#af"/></g><g id="w"><use transform="matrix(0.06172839506172839,0,0,0.06172839506172839,0,0)" xlink:href="#S"/><use transform="matrix(0.06172839506172839,0,0,0.06172839506172839,7.345679012345679,0)" xlink:href="#O"/><use transform="matrix(0.06172839506172839,0,0,0.06172839506172839,19.691358024691358,0)" xlink:href="#D"/><use transform="matrix(0.06172839506172839,0,0,0.06172839506172839,32.03703703703704,0)" xlink:href="#H"/></g><use transform="matrix(0.06172839506172839,0,0,0.06172839506172839,0,0)" xlink:href="#D" id="x"/><g id="y"><use transform="matrix(0.06172839506172839,0,0,0.06172839506172839,0,0)" xlink:href="#X"/><use transform="matrix(0.06172839506172839,0,0,0.06172839506172839,15.987654320987653,0)" xlink:href="#D"/><use transform="matrix(0.06172839506172839,0,0,0.06172839506172839,28.333333333333332,0)" xlink:href="#P"/><use transform="matrix(0.06172839506172839,0,0,0.06172839506172839,40.67901234567901,0)" xlink:href="#ae"/><use transform="matrix(0.06172839506172839,0,0,0.06172839506172839,51.79012345679013,0)" xlink:href="#O"/><use transform="matrix(0.06172839506172839,0,0,0.06172839506172839,64.13580246913581,0)" xlink:href="#J"/><use transform="matrix(0.06172839506172839,0,0,0.06172839506172839,76.4814814814815,0)" xlink:href="#E"/></g><path fill="#3a414a" d="M108 0H70L1-190h34L89-25l56-165h34" id="au"/><g id="z"><use transform="matrix(0.06172839506172839,0,0,0.06172839506172839,0,0)" xlink:href="#B"/><use transform="matrix(0.06172839506172839,0,0,0.06172839506172839,14.814814814814813,0)" xlink:href="#J"/><use transform="matrix(0.06172839506172839,0,0,0.06172839506172839,27.160493827160494,0)" xlink:href="#E"/><use transform="matrix(0.06172839506172839,0,0,0.06172839506172839,34.50617283950617,0)" xlink:href="#au"/><use transform="matrix(0.06172839506172839,0,0,0.06172839506172839,45.61728395061728,0)" xlink:href="#R"/><use transform="matrix(0.06172839506172839,0,0,0.06172839506172839,50.49382716049382,0)" xlink:href="#ae"/><use transform="matrix(0.06172839506172839,0,0,0.06172839506172839,61.60493827160494,0)" xlink:href="#J"/></g><g id="A"><use transform="matrix(0.06172839506172839,0,0,0.06172839506172839,0,0)" xlink:href="#an"/><use transform="matrix(0.06172839506172839,0,0,0.06172839506172839,14.814814814814813,0)" xlink:href="#ae"/><use transform="matrix(0.06172839506172839,0,0,0.06172839506172839,25.925925925925924,0)" xlink:href="#ae"/><use transform="matrix(0.06172839506172839,0,0,0.06172839506172839,37.03703703703704,0)" xlink:href="#L"/><use transform="matrix(0.06172839506172839,0,0,0.06172839506172839,49.382716049382715,0)" xlink:href="#T"/><use transform="matrix(0.06172839506172839,0,0,0.06172839506172839,61.72839506172839,0)" xlink:href="#P"/><use transform="matrix(0.06172839506172839,0,0,0.06172839506172839,74.07407407407408,0)" xlink:href="#I"/><use transform="matrix(0.06172839506172839,0,0,0.06172839506172839,80.24691358024691,0)" xlink:href="#ab"/></g></defs></g></svg>